<svg width="21" height="16" viewBox="0 0 21 16" fill="none" xmlns="http://www.w3.org/2000/svg">
<path d="M20.2529 1.86287C20.1908 1.78639 20.1126 1.72461 20.0239 1.68196C19.9351 1.63931 19.838 1.61685 19.7395 1.6162H5.85954L6.29287 2.94954H18.8662L17.0862 10.9495H7.0862L4.03954 1.30287C4.00658 1.20051 3.94936 1.10764 3.87274 1.03218C3.79612 0.956726 3.70239 0.900924 3.59954 0.869536L0.866203 0.0295355C0.782157 0.00370887 0.693847 -0.00531074 0.606316 0.00299157C0.518784 0.0112939 0.433744 0.0367556 0.356052 0.0779229C0.199147 0.161064 0.0816957 0.30313 0.0295365 0.472869C-0.0226228 0.642608 -0.00521728 0.826114 0.0779238 0.98302C0.161065 1.13993 0.303131 1.25738 0.47287 1.30954L2.8662 2.04287L5.9262 11.7095L4.83287 12.6029L4.7462 12.6895C4.47576 13.0012 4.32247 13.3974 4.31274 13.8099C4.303 14.2225 4.43743 14.6255 4.69287 14.9495C4.87458 15.1705 5.10548 15.3459 5.3671 15.4617C5.62872 15.5774 5.9138 15.6303 6.19954 15.6162H17.3262C17.503 15.6162 17.6726 15.546 17.7976 15.4209C17.9226 15.2959 17.9929 15.1263 17.9929 14.9495C17.9929 14.7727 17.9226 14.6032 17.7976 14.4781C17.6726 14.3531 17.503 14.2829 17.3262 14.2829H6.09287C6.0161 14.2802 5.94131 14.2579 5.87571 14.2179C5.81011 14.1779 5.75593 14.1217 5.7184 14.0547C5.68087 13.9877 5.66125 13.9121 5.66145 13.8353C5.66165 13.7585 5.68166 13.683 5.71954 13.6162L7.3262 12.2829H17.6195C17.7736 12.2866 17.9243 12.2369 18.0458 12.1421C18.1674 12.0473 18.2523 11.9133 18.2862 11.7629L20.3995 2.42954C20.4198 2.33015 20.4171 2.22744 20.3917 2.12924C20.3663 2.03105 20.3188 1.93994 20.2529 1.86287Z" fill="#359740"/>
</svg>
