<svg width="22" height="22" viewBox="0 0 22 22" fill="none" xmlns="http://www.w3.org/2000/svg">
<g clip-path="url(#clip0_28289_224)">
<path d="M18.8243 5.61245C17.5774 3.70939 15.6251 2.50963 13.5304 2.17177C13.5518 2.02697 13.5304 1.86838 13.452 1.73047C13.3024 1.46846 12.996 1.32366 12.6825 1.38572L8.35763 2.24761L7.75913 0.46866C7.67363 0.213539 7.4385 0.02737 7.16063 -0.000210622C6.88275 -0.0277913 6.612 0.103217 6.4695 0.337652L5.17988 2.46826C4.3035 1.82011 3.22763 1.37882 2.1375 1.37882C1.74563 1.37882 1.425 1.6891 1.425 2.06834C1.425 2.44757 1.74563 2.75785 2.1375 2.75785C2.964 2.75785 3.7905 3.14398 4.446 3.66112L0.320629 6.32265C0.0570044 6.48814 -0.0569956 6.80531 0.0356294 7.09491C0.121129 7.38451 0.399004 7.58447 0.712504 7.58447H2.61488L1.44638 11.5354C1.36088 11.8388 1.48913 12.156 1.767 12.3145C1.881 12.3835 2.00925 12.4042 2.1375 12.4042C2.15175 14.6589 3.18488 16.8447 5.08725 18.2513C7.90163 20.3267 11.9985 21.3817 17.271 21.3817C17.4705 21.3817 17.67 21.3817 17.8695 21.3748C19.5225 21.3472 20.9261 20.1268 21.1328 18.534C21.8096 13.3281 21.033 8.98418 18.8243 5.61245ZM19.722 18.3616C19.6009 19.2787 18.8029 19.982 17.8553 19.9958C12.6184 20.0716 8.61413 19.1201 5.9565 17.155C4.08975 15.7759 3.25613 13.466 3.66938 11.2458L4.69538 10.2874C3.75488 12.5628 4.43175 15.1622 6.39113 16.6102C8.82076 18.403 12.483 19.3131 17.271 19.3131C17.4634 19.3131 17.6558 19.3131 17.8553 19.3062C18.2471 19.2993 18.5606 18.9822 18.5535 18.6029C18.5464 18.2237 18.2258 17.9272 17.841 17.9272C17.8339 17.9272 17.8339 17.9272 17.8268 17.9272C13.0886 18.01 9.52613 17.1825 7.26038 15.5139C5.73563 14.39 5.26538 12.287 6.14888 10.5218L7.99425 12.8386C8.1225 13.0041 8.33625 13.1006 8.55 13.1006C8.62838 13.1006 8.70675 13.0868 8.778 13.0661C9.07013 12.9696 9.2625 12.7076 9.2625 12.4111V7.50172L14.3355 6.88806C14.6561 6.84668 14.9126 6.60535 14.9554 6.29507C14.9981 5.98479 14.82 5.6883 14.5208 5.56418L11.514 4.37132L12.426 3.45427C14.4566 3.48874 16.4303 4.52302 17.6201 6.34334C19.6436 9.44616 20.3561 13.4867 19.722 18.3616ZM5.37938 4.70918C5.39363 4.70229 5.39363 4.69539 5.40075 4.6885C5.59313 4.98499 5.7 5.27459 5.7 5.51592C5.7 5.89515 6.02063 6.20543 6.4125 6.20543C6.80438 6.20543 7.125 5.89515 7.125 5.51592C7.125 4.86088 6.783 4.1231 6.22725 3.45427L6.88988 2.35793L7.19625 3.2681C7.31025 3.60596 7.6665 3.79902 8.01563 3.73007L10.7018 3.19225L9.747 4.15068C9.58313 4.31616 9.51188 4.5506 9.56175 4.77124C9.61163 4.99189 9.76838 5.17806 9.98925 5.26769L11.457 5.84689L8.45738 6.21233C8.10825 6.2537 7.8375 6.55019 7.8375 6.89495V10.3839L6.05625 8.14297C5.93513 7.98439 5.74275 7.88785 5.54325 7.87406C5.529 7.87406 5.50763 7.87406 5.49338 7.87406C5.30813 7.87406 5.13 7.94301 4.99463 8.06713L3.55538 9.41858L4.2465 7.07422C4.31063 6.87427 4.26788 6.65362 4.1325 6.48124C3.99713 6.30886 3.78338 6.20543 3.5625 6.20543H3.06375L5.37938 4.70918Z" fill="#359740"/>
<path d="M11.6066 10.1428C11.7491 10.2738 11.9272 10.3427 12.1125 10.3427C12.2977 10.3427 12.4759 10.2738 12.6184 10.1428C12.8962 9.87386 12.8962 9.43947 12.6184 9.17056L11.9059 8.48104C11.628 8.21213 11.1791 8.21213 10.9012 8.48104C10.6234 8.74995 10.6234 9.18435 10.9012 9.45326L11.6066 10.1428Z" fill="#359740"/>
<path d="M15.8816 9.45326C16.0241 9.58427 16.2022 9.65322 16.3875 9.65322C16.5727 9.65322 16.7509 9.58427 16.8934 9.45326C17.1712 9.18435 17.1712 8.74995 16.8934 8.48104L16.1809 7.79153C15.903 7.52262 15.4541 7.52262 15.1762 7.79153C14.8984 8.06044 14.8984 8.49483 15.1762 8.76374L15.8816 9.45326Z" fill="#359740"/>
<path d="M12.6184 13.9903L11.9059 13.3007C11.628 13.0318 11.1791 13.0318 10.9012 13.3007C10.6234 13.5697 10.6234 14.004 10.9012 14.273L11.6137 14.9625C11.7491 15.1004 11.9272 15.1693 12.1125 15.1693C12.2977 15.1693 12.4759 15.1004 12.6184 14.9694C12.8962 14.7005 12.8962 14.2592 12.6184 13.9903Z" fill="#359740"/>
<path d="M14.4566 12.9008C14.5991 13.0318 14.7772 13.1008 14.9625 13.1008C15.1477 13.1008 15.3259 13.0318 15.4684 12.9008C15.7462 12.6319 15.7462 12.1975 15.4684 11.9286L14.7559 11.2391C14.478 10.9702 14.0291 10.9702 13.7512 11.2391C13.4734 11.508 13.4734 11.9424 13.7512 12.2113L14.4566 12.9008Z" fill="#359740"/>
<path d="M17.3066 12.9008L18.0191 13.5903C18.1616 13.7214 18.3398 13.7903 18.525 13.7903C18.7103 13.7903 18.8884 13.7214 19.0309 13.5903C19.3088 13.3214 19.3088 12.887 19.0309 12.6181L18.3184 11.9286C18.0405 11.6597 17.5916 11.6597 17.3138 11.9286C17.0288 12.1906 17.0288 12.6319 17.3066 12.9008Z" fill="#359740"/>
<path d="M16.1809 14.6798C15.903 14.4109 15.4541 14.4109 15.1762 14.6798C14.8984 14.9487 14.8984 15.3831 15.1762 15.652L15.8887 16.3415C16.0241 16.4794 16.2022 16.5484 16.3875 16.5484C16.5727 16.5484 16.7509 16.4794 16.8934 16.3484C17.1712 16.0795 17.1712 15.6451 16.8934 15.3762L16.1809 14.6798Z" fill="#359740"/>
</g>
<defs>
<clipPath id="clip0_28289_224">
<rect width="21.375" height="21.375" fill="white"/>
</clipPath>
</defs>
</svg>
